Coordinates
version=1
nRows=29
nColumns=24
inDegrees=yes

Units are S.I. units (second, meters, Newtons, ...)
Angles are in degrees.

endheader
time	pelvis_tilt	pelvis_list	pelvis_rotation	pelvis_tx	pelvis_ty	pelvis_tz	hip_flexion_r	hip_adduction_r	hip_rotation_r	knee_angle_r	ankle_angle_r	subtalar_angle_r	mtp_angle_r	hip_flexion_l	hip_adduction_l	hip_rotation_l	knee_angle_l	ankle_angle_l	subtalar_angle_l	mtp_angle_l	lumbar_extension	lumbar_bending	lumbar_rotation
      0.79566667	      0.77449786	     -3.62658759	      1.99962842	     -0.46735692	      1.00920984	      0.34683470	      7.16850035	      9.15759541	     -2.54893741	    -10.70840446	      2.56090691	    -13.38126473	      1.66148577	     17.62447648	     -4.41339936	      3.34732912	    -66.62404688	     -7.52476609	     -7.53457363	      4.64646407	     -0.44771028	      6.78110331	      1.88731264
      0.79983333	      0.78381104	     -3.52185967	      1.87904420	     -0.46243381	      1.00982208	      0.34712125	      6.69020028	      9.07296023	     -2.44833075	    -10.44850953	      2.70623413	    -13.20233344	      1.66745337	     18.15718940	     -4.24058398	      3.37669892	    -66.38620778	     -6.87562186	     -7.79179787	      4.59588102	     -0.52372354	      6.66183570	      2.03343357
      0.80400000	      0.83602583	     -3.40504424	      1.74893395	     -0.45751002	      1.01047784	      0.34740381	      6.16182071	      8.97215690	     -2.34634056	    -10.18315461	      2.87528210	    -12.94498132	      1.67407877	     18.61820374	     -4.05948094	      3.39307103	    -66.08215851	     -6.25398571	     -7.99254238	      4.48353478	     -0.65625979	      6.54455436	      2.28945098
      0.80816667	      0.83694903	     -3.29589477	      1.60248419	     -0.45261046	      1.01100145	      0.34771507	      5.70632283	      8.87700181	     -2.25190582	     -9.94802468	      3.03462544	    -12.71645096	      1.67953784	     19.12980735	     -3.89708956	      3.38306580	    -65.74789249	     -5.63749461	     -8.18732283	      4.33235748	     -0.72290007	      6.41867013	      2.49659440
      0.81233333	      0.79142191	     -3.20382227	      1.48837862	     -0.44774345	      1.01140051	      0.34798550	      5.29663670	      8.79991873	     -2.14516322	     -9.69306228	      3.16427160	    -12.61470054	      1.68358011	     19.69745644	     -3.73680273	      3.42022141	    -65.38453513	     -5.08037754	     -8.39210209	      4.31560918	     -0.73366828	      6.30778502	      2.53699402
      0.81650000	      0.76173075	     -3.10633819	      1.33863397	     -0.44288117	      1.01179860	      0.34828189	      4.87702500	      8.71644210	     -2.01263184	     -9.45577927	      3.30198441	    -12.48873352	      1.68796150	     20.22007877	     -3.58631404	      3.41076604	    -64.96355166	     -4.51115446	     -8.56532969	      4.29676725	     -0.76043193	      6.20171026	      2.60984620
      0.82066667	      0.83396566	     -2.99570916	      1.14844661	     -0.43802489	      1.01230049	      0.34862921	      4.36143113	      8.61390122	     -1.91035304	     -9.24952951	      3.45839290	    -12.17574198	      1.68871707	     20.60182224	     -3.45578131	      3.32964060	    -64.48384994	     -3.91956308	     -8.64645540	      4.07927244	     -0.94649811	      6.08413059	      3.02139699
      0.82483333	      0.80961747	     -2.89982455	      0.97632324	     -0.43319996	      1.01261107	      0.34895421	      3.94538930	      8.53031432	     -1.74586437	     -9.02771510	      3.61008494	    -12.03345671	      1.69255683	     21.09182448	     -3.32631449	      3.28519977	    -63.97659181	     -3.40947473	     -8.75587076	      4.03367404	     -1.00276710	      5.97681634	      3.07508012
      0.82900000	      0.81735620	     -2.81059404	      0.81470495	     -0.42834763	      1.01293011	      0.34923673	      3.49605984	      8.44339956	     -1.65488844	     -8.80630848	      3.76868829	    -11.78230912	      1.68914208	     21.52779523	     -3.20308806	      3.24767854	    -63.41970763	     -2.91112170	     -8.79981905	      3.79676079	     -1.08472392	      5.89237078	      3.36503660
      0.83316667	      0.83854801	     -2.73144110	      0.64593191	     -0.42350723	      1.01323068	      0.34955267	      3.02149900	      8.37233853	     -1.50908700	     -8.56141963	      3.92515562	    -11.60773523	      1.68803646	     21.93674408	     -3.10589756	      3.18902103	    -62.82083975	     -2.46101373	     -8.83362560	      3.64733662	     -1.18461412	      5.79691334	      3.48831260
      0.83733333	      0.80302649	     -2.64206980	      0.46177634	     -0.41868854	      1.01341349	      0.34986182	      2.63008674	      8.28531071	     -1.36573676	     -8.35836637	      4.05613897	    -11.46111512	      1.69002003	     22.39150100	     -2.99728490	      3.11701039	    -62.17984718	     -2.03980673	     -8.89706829	      3.58174488	     -1.21820536	      5.69697442	      3.57521423
      0.84150000	      0.83037239	     -2.57041071	      0.28633781	     -0.41386488	      1.01363555	      0.35016089	      2.15507116	      8.21456591	     -1.22670037	     -8.11876443	      4.20220083	    -11.26956979	      1.69174102	     22.76315306	     -2.91603753	      3.04349808	    -61.49754741	     -1.63252243	     -8.90161042	      3.48799784	     -1.32866139	      5.61785273	      3.74586324
      0.84566667	      0.81088654	     -2.51063145	      0.11678599	     -0.40905002	      1.01374407	      0.35044235	      1.73991594	      8.15391098	     -1.09259585	     -7.89569749	      4.33753268	    -11.09734452	      1.69303876	     23.17736134	     -2.84223930	      2.98578251	    -60.78523230	     -1.26970471	     -8.90842731	      3.39958949	     -1.38678746	      5.55076287	      3.89041231
      0.84983333	      0.81166814	     -2.43375472	     -0.05524727	     -0.40422518	      1.01386265	      0.35071083	      1.30151389	      8.07045807	     -0.96820182	     -7.66884527	      4.47567112	    -10.91450826	      1.69506188	     23.54467875	     -2.75400168	      2.91116161	    -60.01522101	     -0.94830767	     -8.90162284	      3.30589928	     -1.46642819	      5.46672052	      4.03595119
      0.85400000	      0.81675824	     -2.37132757	     -0.22349702	     -0.39940578	      1.01393425	      0.35096946	      0.85966022	      8.00023647	     -0.84254230	     -7.44233796	      4.61209814	    -10.72972763	      1.69821355	     23.89489342	     -2.68388308	      2.83884797	    -59.21312371	     -0.65008386	     -8.88584465	      3.21496249	     -1.55237313	      5.39495079	      4.17040734
      0.85816667	      0.81673119	     -2.32750340	     -0.38060349	     -0.39458791	      1.01394734	      0.35121282	      0.42143698	      7.94832092	     -0.72228470	     -7.20830752	      4.74328455	    -10.55480447	      1.70215274	     24.24083443	     -2.63339387	      2.77709991	    -58.38214055	     -0.37640794	     -8.85789355	      3.12954620	     -1.63300441	      5.34716742	      4.29123707
      0.86233333	      0.82269181	     -2.28285864	     -0.53832461	     -0.38976406	      1.01394542	      0.35144547	     -0.02471785	      7.89292110	     -0.60044362	     -6.97074233	      4.87168446	    -10.38627784	      1.70682440	     24.55919381	     -2.58438052	      2.70804444	    -57.50495207	     -0.13826014	     -8.82018658	      3.04332511	     -1.71809239	      5.29681257	      4.40958730
      0.86650000	      0.86022114	     -2.24107742	     -0.67649672	     -0.38491203	      1.01394399	      0.35165501	     -0.51275004	      7.83608089	     -0.52454563	     -6.71507293	      5.00292583	    -10.19624390	      1.71274342	     24.82718061	     -2.53972963	      2.63806596	    -56.58955529	      0.06837080	     -8.77651332	      2.89216047	     -1.83377580	      5.24274913	      4.58064663
      0.87066667	      0.86540546	     -2.20810554	     -0.82365563	     -0.38007919	      1.01385579	      0.35186003	     -0.95590948	      7.78792710	     -0.41532721	     -6.47941048	      5.13005225	    -10.02763503	      1.72093973	     25.11466490	     -2.50573249	      2.56648685	    -55.64188105	      0.25971261	     -8.72914387	      2.74377818	     -1.91690817	      5.20569061	      4.68546227
      0.87483333	      0.85204048	     -2.17358888	     -0.97912403	     -0.37526383	      1.01371752	      0.35206695	     -1.37032301	      7.73698403	     -0.27912323	     -6.25937645	      5.24721684	     -9.87699895	      1.72882420	     25.40059510	     -2.47321984	      2.48928432	    -54.64919525	      0.42919760	     -8.67848725	      2.65505548	     -1.98231046	      5.17102283	      4.74584260
      0.87900000	      0.86171051	     -2.13624937	     -1.11737454	     -0.37041288	      1.01357509	      0.35225210	     -1.81946013	      7.67946447	     -0.17450663	     -6.02052367	      5.37287601	     -9.72148311	      1.73821439	     25.64193965	     -2.43610045	      2.41242221	    -53.61778369	      0.57501009	     -8.63074223	      2.56282559	     -2.07246713	      5.12586892	      4.83123577
      0.88316667	      0.86609520	     -2.11961216	     -1.24471883	     -0.36556674	      1.01337330	      0.35241655	     -2.26062172	      7.64346193	     -0.07695284	     -5.78399801	      5.49564425	     -9.56747503	      1.74857074	     25.87803889	     -2.42073422	      2.34208571	    -52.56049989	      0.70592752	     -8.57725047	      2.47304239	     -2.14843498	      5.10288267	      4.91010461
      0.88733333	      0.87443618	     -2.09995961	     -1.37022250	     -0.36070645	      1.01315436	      0.35257280	     -2.70565749	      7.60200814	      0.01601797	     -5.54809947	      5.61724128	     -9.41749509	      1.76009792	     26.08651986	     -2.40464262	      2.26142706	    -51.45996382	      0.82004151	     -8.52368430	      2.38246739	     -2.23014799	      5.07676591	      4.98298281
      0.89150000	      0.82021556	     -2.10993927	     -1.46008512	     -0.35584413	      1.01278054	      0.35268404	     -3.08974472	      7.59687371	      0.09680992	     -5.29664103	      5.75370184	     -9.29667918	      1.76847016	     26.36509591	     -2.40577462	      2.22451794	    -50.35531130	      0.92726524	     -8.46700336	      2.34127709	     -2.22422936	      5.08429076	      5.01866908
      0.89566667	      0.87797925	     -2.07865074	     -1.60570893	     -0.35099133	      1.01256496	      0.35286127	     -3.57302856	      7.53667297	      0.19897558	     -5.09111719	      5.86755576	     -9.14756434	      1.78177864	     26.47097936	     -2.39696576	      2.08800339	    -49.16798497	      1.00937678	     -8.42440748	      2.24783120	     -2.38985872	      5.04965277	      5.09802882
      0.89983333	      0.87457550	     -2.08311874	     -1.70560383	     -0.34610770	      1.01219731	      0.35297648	     -4.00490135	      7.51892223	      0.27356488	     -4.85507400	      5.98899781	     -9.01141059	      1.79611543	     26.64379392	     -2.40641542	      2.00581208	    -47.97777155	      1.09648620	     -8.37975717	      2.15331697	     -2.45575146	      5.05580755	      5.16124217
      0.90400000	      0.86921553	     -2.08584513	     -1.80854253	     -0.34122503	      1.01180248	      0.35309787	     -4.42502211	      7.49933624	      0.35672912	     -4.64076453	      6.11960843	     -8.88982001	      1.81072253	     26.79587605	     -2.41760685	      1.91245068	    -46.74777361	      1.16845662	     -8.33918252	      2.06317340	     -2.51817168	      5.04802754	      5.20904699
      0.90816667	      0.87084413	     -2.08307651	     -1.90542804	     -0.33632610	      1.01138292	      0.35320004	     -4.85082748	      7.47177469	      0.42921061	     -4.42922694	      6.24778400	     -8.76831872	      1.82685848	     26.91651234	     -2.42200001	      1.81311535	    -45.47794774	      1.22727384	     -8.31256726	      1.96598159	     -2.58944631	      5.04404603	      5.25185913
      0.91233333	      0.80313435	     -2.11627217	     -1.97903759	     -0.33142437	      1.01081020	      0.35328343	     -5.20485197	      7.49030757	      0.51472208	     -4.21428174	      6.38810859	     -8.66215537	      1.83677910	     27.11309813	     -2.45536407	      1.75126501	    -44.20969703	      1.29929427	     -8.24891010	      1.92573787	     -2.56475422	      5.07255786	      5.26646773
